<svg xmlns="http://www.w3.org/2000/svg" version="1.1" xmlns:xlink="http://www.w3.org/1999/xlink" width="512" height="512" x="0" y="0" viewBox="0 0 32 32" style="enable-background:new 0 0 512 512" xml:space="preserve" class=""><g><path d="M29 5.455v3.17H1v-3.17c0-1.15.93-2.08 2.08-2.08h23.84c1.15 0 2.08.93 2.08 2.08zM13.75 14.125h2.5v2.5h-2.5z" fill="#008000" opacity="1" data-original="#000000" class=""></path><path d="M5.75 14.125v2.5h2.5v-2.5zm0 0v2.5h2.5v-2.5zm-4.75-4v17.17c0 1.15.93 2.08 2.08 2.08h15.59a7.384 7.384 0 0 1-1.17-4c0-4.14 3.36-7.5 7.5-7.5 1.47 0 2.85.43 4 1.17v-8.92zm8.75 15.25c0 .41-.34.75-.75.75H5c-.41 0-.75-.34-.75-.75v-4c0-.41.34-.75.75-.75h4c.41 0 .75.34.75.75zm0-8c0 .41-.34.75-.75.75H5c-.41 0-.75-.34-.75-.75v-4c0-.41.34-.75.75-.75h4c.41 0 .75.34.75.75zm8 0c0 .41-.34.75-.75.75h-4c-.41 0-.75-.34-.75-.75v-4c0-.41.34-.75.75-.75h4c.41 0 .75.34.75.75zm-12 7.25h2.5v-2.5h-2.5zm0-8h2.5v-2.5h-2.5zM15 6.125a.75.75 0 0 1-.75-.75v-4a.75.75 0 0 1 1.5 0v4a.75.75 0 0 1-.75.75zM5 6.125a.75.75 0 0 1-.75-.75v-4a.75.75 0 0 1 1.5 0v4a.75.75 0 0 1-.75.75zM25 6.125a.75.75 0 0 1-.75-.75v-4a.75.75 0 0 1 1.5 0v4a.75.75 0 0 1-.75.75z" fill="#008000" opacity="1" data-original="#000000" class=""></path><path d="M25 19.375c-3.31 0-6 2.69-6 6s2.69 6 6 6 6-2.69 6-6-2.69-6-6-6zm2 6.75h-2c-.41 0-.75-.34-.75-.75v-3c0-.41.34-.75.75-.75s.75.34.75.75v2.25H27c.41 0 .75.34.75.75s-.34.75-.75.75z" fill="#008000" opacity="1" data-original="#000000" class=""></path></g></svg>