<svg xmlns="http://www.w3.org/2000/svg" version="1.1" xmlns:xlink="http://www.w3.org/1999/xlink" width="512" height="512" x="0" y="0" viewBox="0 0 32 32" style="enable-background:new 0 0 512 512" xml:space="preserve" class="hovered-paths"><g><path d="M13.59 27.02c-.06.03-.12.06-.19.09-.13.06-.26.08-.4.08s-.27-.03-.4-.08a13.51 13.51 0 0 1-8.1-12.38V9.25c0-.39.23-.75.59-.91l7.5-3.41c.26-.12.56-.12.83 0l7.5 3.41c.36.16.59.52.59.91v1.8c.33-.03.66-.05 1-.05.86 0 1.7.12 2.5.31V7c0-.39-.23-.75-.59-.91l-11.01-5c-.26-.12-.56-.12-.83 0l-10.99 5C1.23 6.25 1 6.61 1 7v7.73c0 6.83 4.06 12.98 10.35 15.65l1.26.54c.13.05.26.08.39.08s.27-.03.39-.08l1.26-.54c.46-.2.91-.42 1.35-.65-.95-.76-1.77-1.67-2.41-2.71z" fill="#008000" opacity="1" data-original="#000000" class="hovered-path"></path><path d="M19.5 11.44V9.9L13 6.95 6.5 9.9v4.83c0 4.26 2.35 8.14 6.06 10.13-.36-1.06-.56-2.19-.56-3.36 0-4.75 3.17-8.76 7.5-10.06z" fill="#008000" opacity="1" data-original="#000000" class="hovered-path"></path><path d="M22.5 13c-4.69 0-8.5 3.81-8.5 8.5s3.81 8.5 8.5 8.5 8.5-3.81 8.5-8.5-3.81-8.5-8.5-8.5zm4.03 7.13-4.11 4.15a1 1 0 0 1-.71.3c-.26 0-.52-.11-.71-.29l-2.53-2.53c-.39-.39-.39-1.02 0-1.42.39-.39 1.02-.39 1.42 0l1.82 1.82 3.4-3.43a.987.987 0 0 1 1.41 0c.39.39.4 1.02 0 1.41z" fill="#008000" opacity="1" data-original="#000000" class="hovered-path"></path></g></svg>