<svg xmlns="http://www.w3.org/2000/svg" version="1.1" xmlns:xlink="http://www.w3.org/1999/xlink" width="512" height="512" x="0" y="0" viewBox="0 0 1707 1707" style="enable-background:new 0 0 512 512" xml:space="preserve" fill-rule="evenodd" class=""><g><path d="M409 1010H17c-9 0-16-7-16-16V855c0-85 69-154 154-154h64c7 0 13 4 16 10l90 111 94-115c3-4 8-6 13-6h74c55 0 103 28 130 71-118 1-215 92-226 207-1 10-1 20-1 31zm1281 0h-392v-9c0-126-102-228-228-229 28-43 76-71 130-71 74 0 66-7 85 17l85 104 94-115c3-4 8-6 13-6h74c86 0 155 69 155 154v139c0 9-7 16-16 16zm-315-337c-121 0-219-98-219-219 0-119 97-219 219-219 121 0 219 98 219 219s-98 219-219 219zm179-211c-42-19-69-43-79-69-44 29-135 70-279 59-1 99 79 181 179 181 96 0 174-76 179-171zM853 1472c-121 0-219-99-219-220s98-220 219-220 220 99 220 220-99 220-220 220zm-72-145-43-87c-12-23 24-41 36-17l31 63 133-115c20-17 46 13 26 30l-152 132c-10 8-25 5-31-6zm457-136h-132c-28-114-131-199-253-199s-224 85-252 199H469c-11 0-20-9-20-20v-170c0-104 85-189 189-189h79c13 0 18 12 25 21l104 128 116-141c4-5 9-8 15-8h92c104 0 189 85 189 189v170c0 11-9 20-20 20zM332 673c-133 0-235-117-218-246 14-108 106-192 218-192 121 0 219 98 219 219s-98 219-219 219zm179-211c-42-19-69-43-79-69-44 29-135 70-279 59-2 100 79 181 179 181 96 0 174-76 179-171zm568 52c-55-25-89-57-100-91-52 36-166 91-351 75-5 128 98 234 225 234 122 0 222-97 226-218zm40-8c0 147-119 266-266 266-146 0-265-119-265-266 0-146 119-266 265-266 147 0 266 120 266 266z" fill="#008000" opacity="1" data-original="#000000" class=""></path></g></svg>