<svg class="border shadow-md dark:border-slate-700" viewBox="0 0 1267.2 712.8" xmlns="http://www.w3.org/2000/svg" preserveAspectRatio="none" style="width: 1267.2px; height: 712.8px;"><rect class="bg" id="bg" x="0" y="0" width="1267.2" height="712.8" fill="#ffffff"/><path d="M 0 -71.28 L 0 -71.28&#10;                L 84.48 -35.64&#10;                L 253.44 -71.28 L 253.44 -71.28&#10;                L 337.92 -35.64&#10;                L 506.88 -71.28 L 506.88 -71.28&#10;                L 690.88 -12.28&#10;                L 760.3199999999999 -71.28 L 760.3199999999999 -71.28&#10;                L 891.32 -35.64&#10;                L 1013.76 -71.28 L 1013.76 -71.28&#10;                L 1123.76 -17.28&#10;                L 1267.2 -71.28 L 1267.2 -71.28&#10;                L 1351.68 -8.28&#10;                L 1520.64 -71.28  V 712.80 H 0 V -71.28 Z" fill="#FFFFFF"/><path d="M 0 0 L 0 0.00&#10;                L 151.00 62.00&#10;                L 253.44 0.00 L 253.44 0.00&#10;                L 421.44 35.64&#10;                L 506.88 0.00 L 506.88 0.00&#10;                L 624.88 35.64&#10;                L 760.3199999999999 0.00 L 760.3199999999999 0.00&#10;                L 853.32 35.64&#10;                L 1013.76 0.00 L 1013.76 0.00&#10;                L 1098.24 35.64&#10;                L 1267.2 0.00 L 1267.2 0.00&#10;                L 1422.20 63.00&#10;                L 1520.64 0.00  V 712.80 H 0 V 0.00 Z" fill="#e9f4e9"/><path d="M 0 71.28 L 0 71.28&#10;                L 84.48 106.92&#10;                L 253.44 71.28 L 253.44 71.28&#10;                L 390.44 121.28&#10;                L 506.88 71.28 L 506.88 71.28&#10;                L 609.88 106.92&#10;                L 760.3199999999999 71.28 L 760.3199999999999 71.28&#10;                L 846.32 106.92&#10;                L 1013.76 71.28 L 1013.76 71.28&#10;                L 1169.76 106.92&#10;                L 1267.2 71.28 L 1267.2 71.28&#10;                L 1368.20 106.92&#10;                L 1520.64 71.28  V 712.80 H 0 V 71.28 Z" fill="#d3e9d3"/><path d="M 0 142.56 L 0 142.56&#10;                L 187.00 194.56&#10;                L 253.44 142.56 L 253.44 142.56&#10;                L 400.44 206.56&#10;                L 506.88 142.56 L 506.88 142.56&#10;                L 591.36 199.56&#10;                L 760.3199999999999 142.56 L 760.3199999999999 142.56&#10;                L 934.32 178.20&#10;                L 1013.76 142.56 L 1013.76 142.56&#10;                L 1188.76 211.56&#10;                L 1267.2 142.56 L 1267.2 142.56&#10;                L 1351.68 212.56&#10;                L 1520.64 142.56  V 712.80 H 0 V 142.56 Z" fill="#bddebd"/><path d="M 0 213.84 L 0 213.84&#10;                L 98.00 277.84&#10;                L 253.44 213.84 L 253.44 213.84&#10;                L 423.44 249.48&#10;                L 506.88 213.84 L 506.88 213.84&#10;                L 591.36 249.48&#10;                L 760.3199999999999 213.84 L 760.3199999999999 213.84&#10;                L 881.32 249.48&#10;                L 1013.76 213.84 L 1013.76 213.84&#10;                L 1186.76 282.84&#10;                L 1267.2 213.84 L 1267.2 213.84&#10;                L 1357.20 249.48&#10;                L 1520.64 213.84  V 712.80 H 0 V 213.84 Z" fill="#a7d3a7"/><path d="M 0 285.12 L 0 285.12&#10;                L 84.48 320.76&#10;                L 253.44 285.12 L 253.44 285.12&#10;                L 337.92 331.12&#10;                L 506.88 285.12 L 506.88 285.12&#10;                L 625.88 355.12&#10;                L 760.3199999999999 285.12 L 760.3199999999999 285.12&#10;                L 844.80 320.76&#10;                L 1013.76 285.12 L 1013.76 285.12&#10;                L 1098.24 320.76&#10;                L 1267.2 285.12 L 1267.2 285.12&#10;                L 1419.20 322.12&#10;                L 1520.64 285.12  V 712.80 H 0 V 285.12 Z" fill="#91c891"/><path d="M 0 356.4 L 0 356.40&#10;                L 84.48 392.04&#10;                L 253.44 356.40 L 253.44 356.40&#10;                L 384.44 403.40&#10;                L 506.88 356.40 L 506.88 356.40&#10;                L 618.88 392.04&#10;                L 760.3199999999999 356.40 L 760.3199999999999 356.40&#10;                L 916.32 402.40&#10;                L 1013.76 356.40 L 1013.76 356.40&#10;                L 1098.24 392.04&#10;                L 1267.2 356.40 L 1267.2 356.40&#10;                L 1384.20 395.40&#10;                L 1520.64 356.40  V 712.80 H 0 V 356.40 Z" fill="#7bbd7b"/><path d="M 0 427.68 L 0 427.68&#10;                L 84.48 463.32&#10;                L 253.44 427.68 L 253.44 427.68&#10;                L 432.44 473.68&#10;                L 506.88 427.68 L 506.88 427.68&#10;                L 638.88 463.32&#10;                L 760.3199999999999 427.68 L 760.3199999999999 427.68&#10;                L 844.80 493.68&#10;                L 1013.76 427.68 L 1013.76 427.68&#10;                L 1098.24 463.32&#10;                L 1267.2 427.68 L 1267.2 427.68&#10;                L 1351.68 478.68&#10;                L 1520.64 427.68  V 712.80 H 0 V 427.68 Z" fill="#65b265"/><path d="M 0 498.96000000000004 L 0 498.96&#10;                L 152.00 560.96&#10;                L 253.44 498.96 L 253.44 498.96&#10;                L 410.44 534.60&#10;                L 506.88 498.96 L 506.88 498.96&#10;                L 606.88 534.60&#10;                L 760.3199999999999 498.96 L 760.3199999999999 498.96&#10;                L 938.32 539.96&#10;                L 1013.76 498.96 L 1013.76 498.96&#10;                L 1098.24 534.60&#10;                L 1267.2 498.96 L 1267.2 498.96&#10;                L 1351.68 534.60&#10;                L 1520.64 498.96  V 712.80 H 0 V 498.96 Z" fill="#4fa74f"/><path d="M 0 570.24 L 0 570.24&#10;                L 101.00 618.24&#10;                L 253.44 570.24 L 253.44 570.24&#10;                L 403.44 616.24&#10;                L 506.88 570.24 L 506.88 570.24&#10;                L 645.88 605.88&#10;                L 760.3199999999999 570.24 L 760.3199999999999 570.24&#10;                L 844.80 634.24&#10;                L 1013.76 570.24 L 1013.76 570.24&#10;                L 1160.76 636.24&#10;                L 1267.2 570.24 L 1267.2 570.24&#10;                L 1351.68 630.24&#10;                L 1520.64 570.24  V 712.80 H 0 V 570.24 Z" fill="#399c39"/><path d="M 0 641.52 L 0 641.52&#10;                L 141.00 701.52&#10;                L 253.44 641.52 L 253.44 641.52&#10;                L 337.92 711.52&#10;                L 506.88 641.52 L 506.88 641.52&#10;                L 591.36 697.52&#10;                L 760.3199999999999 641.52 L 760.3199999999999 641.52&#10;                L 938.32 688.52&#10;                L 1013.76 641.52 L 1013.76 641.52&#10;                L 1150.76 677.16&#10;                L 1267.2 641.52 L 1267.2 641.52&#10;                L 1429.20 685.52&#10;                L 1520.64 641.52  V 712.80 H 0 V 641.52 Z" fill="#239123"/></svg>