<svg class="border shadow-md dark:border-slate-700" viewBox="0 0 1267.2 712.8" xmlns="http://www.w3.org/2000/svg" preserveAspectRatio="none" style="width: 1267.2px; height: 712.8px;"><rect class="bg" id="bg" x="0" y="0" width="1267.2" height="712.8" fill="#ffffff"/><g transform="rotate(0 633.6 356.4)"><path d="M -733.60 -59.10 S -376.80 -103.65&#10;            0.00 -59.10 356.80 -103.65&#10;            733.60 -59.10 923.20 -103.65&#10;            1467.20 -59.10 1496.80 -103.65&#10;            2200.80 -59.10 h 110 V 912.8 H -733.60 Z" fill="#FFFFFF" id="-1"/><path d="M -733.60 30.00 S -376.80 -14.55&#10;            0.00 30.00 148.60 -46.00&#10;            733.60 30.00 851.20 -14.55&#10;            1467.20 30.00 1824.00 -36.00&#10;            2200.80 30.00 h 110 V 912.8 H -733.60 Z" fill="#e2f0e2" id="0"/><path id="1" d="M -733.60 119.10 S -515.00 47.10&#10;            0.00 119.10 33.60 74.55&#10;            733.60 119.10 1090.40 74.55&#10;            1467.20 119.10 1604.80 50.10&#10;            2200.80 119.10 h 110 V 912.8 H -733.60 Z" fill="#c5e1c5"/><path id="2" d="M -733.60 208.20 S -419.00 152.20&#10;            0.00 208.20 356.80 122.20&#10;            733.60 208.20 1090.40 163.65&#10;            1467.20 208.20 1824.00 149.20&#10;            2200.80 208.20 h 110 V 912.8 H -733.60 Z" fill="#a8d2a8"/><path id="3" d="M -733.60 297.30 S -376.80 241.30&#10;            0.00 297.30 356.80 220.30&#10;            733.60 297.30 844.20 252.75&#10;            1467.20 297.30 1824.00 252.30&#10;            2200.80 297.30 h 110 V 912.8 H -733.60 Z" fill="#8bc38b"/><path id="4" d="M -733.60 386.40 S -376.80 341.85&#10;            0.00 386.40 356.80 341.85&#10;            733.60 386.40 1090.40 318.40&#10;            1467.20 386.40 1824.00 323.40&#10;            2200.80 386.40 h 110 V 912.8 H -733.60 Z" fill="#6eb46e"/><path id="5" d="M -733.60 475.50 S -376.80 430.95&#10;            0.00 475.50 165.60 396.50&#10;            733.60 475.50 855.20 419.50&#10;            1467.20 475.50 1824.00 430.95&#10;            2200.80 475.50 h 110 V 912.8 H -733.60 Z" fill="#51a551"/><path id="6" d="M -733.60 564.60 S -696.00 509.60&#10;            0.00 564.60 356.80 514.60&#10;            733.60 564.60 782.20 520.05&#10;            1467.20 564.60 1525.80 493.60&#10;            2200.80 564.60 h 110 V 912.8 H -733.60 Z" fill="#349634"/><path id="7" d="M -733.60 653.70 S -376.80 591.70&#10;            0.00 653.70 326.60 609.15&#10;            733.60 653.70 1090.40 609.15&#10;            1467.20 653.70 1824.00 573.70&#10;            2200.80 653.70 h 110 V 912.8 H -733.60 Z" fill="#178717"/></g></svg>