<svg xmlns="http://www.w3.org/2000/svg" version="1.1" xmlns:xlink="http://www.w3.org/1999/xlink" width="512" height="512" x="0" y="0" viewBox="0 0 512 512" style="enable-background:new 0 0 512 512" xml:space="preserve" class=""><g><path fill="#ff5b5b" d="M456.832 32.133H55.166C24.747 32.133 0 56.881 0 87.3v56.233c0 8.284 6.716 15 15 15h482c8.284 0 15-6.716 15-15V87.3c0-30.419-24.748-55.167-55.168-55.167z" opacity="1" data-original="#ff5b5b"></path><path fill="#ff0059" d="M456.832 32.133H256v126.4h241c8.284 0 15-6.716 15-15V87.3c0-30.419-24.748-55.167-55.168-55.167z" opacity="1" data-original="#ff0059"></path><path fill="#c5e1e6" d="M207.799 94.267c-8.284 0-15-6.716-15-15V15c0-8.284 6.716-15 15-15s15 6.716 15 15v64.267c0 8.284-6.716 15-15 15zM111.4 94.267c-8.284 0-15-6.716-15-15V15c0-8.284 6.716-15 15-15s15 6.716 15 15v64.267c0 8.284-6.715 15-15 15z" opacity="1" data-original="#c5e1e6"></path><path fill="#8db9c4" d="M400.6 94.267c-8.284 0-15-6.716-15-15V15c0-8.284 6.716-15 15-15s15 6.716 15 15v64.267c0 8.284-6.716 15-15 15zM304.199 94.267c-8.284 0-15-6.716-15-15V15c0-8.284 6.716-15 15-15s15 6.716 15 15v64.267c0 8.284-6.716 15-15 15z" opacity="1" data-original="#8db9c4"></path><path fill="#e7f0ef" d="M0 143.533v313.3C0 487.252 24.747 512 55.166 512h401.666c30.42 0 55.168-24.748 55.168-55.167v-313.3z" opacity="1" data-original="#e7f0ef" class=""></path><path fill="#c5e1e6" d="M256 512h200.832c30.42 0 55.168-24.748 55.168-55.167v-313.3H256z" opacity="1" data-original="#c5e1e6"></path><path fill="#265c76" d="M151.566 303.133H87.299c-8.284 0-15-6.716-15-15v-64.266c0-8.284 6.716-15 15-15h64.268c8.284 0 15 6.716 15 15v64.266c-.001 8.284-6.716 15-15.001 15zm-49.267-30h34.268v-34.266h-34.268z" opacity="1" data-original="#265c76"></path><path fill="#1d4659" d="M424.699 303.133h-64.266c-8.284 0-15-6.716-15-15v-64.266c0-8.284 6.716-15 15-15h64.266c8.284 0 15 6.716 15 15v64.266c0 8.284-6.716 15-15 15zm-49.265-30H409.7v-34.266h-34.266z" opacity="1" data-original="#1d4659"></path><path fill="#265c76" d="M151.566 431.666H87.299c-8.284 0-15-6.716-15-15V352.4c0-8.284 6.716-15 15-15h64.268c8.284 0 15 6.716 15 15v64.266c-.001 8.284-6.716 15-15.001 15zm-49.267-30h34.268V367.4h-34.268z" opacity="1" data-original="#265c76"></path><path fill="#1d4659" d="M424.699 431.666h-64.266c-8.284 0-15-6.716-15-15V352.4c0-8.284 6.716-15 15-15h64.266c8.284 0 15 6.716 15 15v64.266c0 8.284-6.716 15-15 15zm-49.265-30H409.7V367.4h-34.266z" opacity="1" data-original="#1d4659"></path><path fill="#265c76" d="M288.133 431.666h-64.268c-8.284 0-15-6.716-15-15V352.4c0-8.284 6.716-15 15-15h64.268c8.284 0 15 6.716 15 15v64.266c0 8.284-6.716 15-15 15zm-49.268-30h34.268V367.4h-34.268z" opacity="1" data-original="#265c76"></path><path fill="#54e360" d="M244.641 293.723c-3.979 0-7.794-1.58-10.606-4.394l-22.723-22.723c-5.858-5.857-5.858-15.355 0-21.213 5.857-5.857 15.355-5.857 21.213 0l12.116 12.115 34.835-34.836c5.857-5.857 15.355-5.859 21.213 0 5.858 5.857 5.858 15.354 0 21.213l-45.441 45.443a14.995 14.995 0 0 1-10.607 4.395z" opacity="1" data-original="#54e360"></path><path fill="#1d4659" d="M288.133 337.4H256v30h17.133v34.266H256v30h32.133c8.284 0 15-6.716 15-15V352.4c0-8.284-6.716-15-15-15z" opacity="1" data-original="#1d4659"></path><path fill="#00b44b" d="M300.688 222.673c-5.857-5.859-15.355-5.857-21.213 0L256 246.149v42.427l44.688-44.69c5.859-5.859 5.859-15.356 0-21.213z" opacity="1" data-original="#00b44b"></path></g></svg>