<svg xmlns="http://www.w3.org/2000/svg" version="1.1" xmlns:xlink="http://www.w3.org/1999/xlink" width="512" height="512" x="0" y="0" viewBox="0 0 504 504.748" style="enable-background:new 0 0 512 512" xml:space="preserve"><g><path fill="#cbb292" d="M303.691 131.77c.172-.086.262-.086.434-.176V487.39c-.027 9.574-7.781 17.328-17.355 17.355h-69.422c-9.575-.027-17.328-7.781-17.36-17.355V158.496a.535.535 0 0 0-.343.086h-.09l-.172-.605.695-95.805h104.223zm0 0" opacity="1" data-original="#cbb292"></path><path fill="#c03a2b" d="M370.598 384.297c-1.649 2.344-3.47 4.601-5.293 6.77h-.086c-2.258 2.601-4.512 5.292-7.117 7.808a17.877 17.877 0 0 1-1.735 1.91 137.195 137.195 0 0 1-19.094 15.969c-2.34 1.734-4.683 3.383-7.113 4.86a112.428 112.428 0 0 1-10.848 6.16h-.085a130.325 130.325 0 0 1-15.102 6.769 148.733 148.733 0 0 1-20.133 5.988c-2.863.606-5.64 1.13-8.504 1.563-5.379.867-10.761 1.386-16.14 1.734a147.159 147.159 0 0 1-111.598-43.043c-3.125-3.125-6.074-6.422-8.941-9.719-39.133-46.843-45.344-112.96-15.618-166.27v-.085a140.073 140.073 0 0 1 21.434-29.16 41.888 41.888 0 0 1 3.125-3.383 150.039 150.039 0 0 1 8.676-7.984c2.258-1.91 4.511-3.73 6.77-5.38a147.24 147.24 0 0 1 24.21-15.015c3.73-1.82 7.551-3.469 11.367-4.945l.782-.262h.09a75.203 75.203 0 0 1 7.375-2.516 132.485 132.485 0 0 1 19.003-4.773c3.473-.606 6.942-1.129 10.414-1.473 2.864-.347 5.727-.523 8.59-.695a147.624 147.624 0 0 1 111.34 43.043 143.88 143.88 0 0 1 24.559 32.543v.086c28.203 50.574 24.16 112.984-10.328 159.5zm0 0" opacity="1" data-original="#c03a2b"></path><g fill="#e6e7e8"><path d="M337.273 416.754c-2.34 1.734-4.683 3.383-7.113 4.86a112.428 112.428 0 0 1-10.848 6.16h-.085a199.323 199.323 0 0 1-131.82-263.985c3.73-1.82 7.55-3.469 11.366-4.945l.782-.262h.09a75.203 75.203 0 0 1 7.375-2.516 8.68 8.68 0 0 1-.348 6.25 182.32 182.32 0 0 0 3.832 154.86 182.316 182.316 0 0 0 121.566 96.02c2.13.46 4 1.738 5.203 3.558zM164.758 186.613c-1.563 5.293-2.863 10.762-3.992 16.14a8.67 8.67 0 0 1-8.504 6.942 6.02 6.02 0 0 1-1.735-.172 8.677 8.677 0 0 1-6.77-10.238c.259-1.219.52-2.52.868-3.734a41.888 41.888 0 0 1 3.125-3.383 150.039 150.039 0 0 1 8.676-7.984c2.258-1.91 4.512-3.73 6.77-5.38a8.683 8.683 0 0 1 1.562 7.81zm0 0" fill="#e6e7e8" opacity="1" data-original="#e6e7e8"></path><path d="M232.879 405.559a191.76 191.76 0 0 1-15.274-13.887 226.888 226.888 0 0 1-11.628-12.496 8.677 8.677 0 1 0-13.188 11.195c3.988 4.688 8.242 9.285 12.496 13.625a224.56 224.56 0 0 0 16.574 15.012 8.556 8.556 0 0 0 5.465 1.91c3.664.008 6.934-2.285 8.18-5.727s.195-7.296-2.625-9.632zM184.37 348.37a210.636 210.636 0 0 1-15.797-34.191 8.681 8.681 0 0 0-6.597-6.121 8.675 8.675 0 0 0-9.715 11.933 216.833 216.833 0 0 0 17.093 37.055 8.595 8.595 0 0 0 7.465 4.34 8.678 8.678 0 0 0 7.55-13.016zm-27.77-103.96.087-4.255a8.683 8.683 0 0 0-2.418-6.187 8.69 8.69 0 0 0-6.086-2.664 8.998 8.998 0 0 0-8.852 8.504c-.086 1.562-.086 3.039-.086 4.601-.004 12.09.953 24.16 2.863 36.098a8.732 8.732 0 0 0 8.59 7.289c.465.016.93-.012 1.387-.086 4.738-.781 7.957-5.238 7.203-9.98a203.896 203.896 0 0 1-2.687-33.32zM283.992 440.531c-2.863.606-5.64 1.13-8.504 1.563-5.379.867-10.761 1.386-16.14 1.734-1.215-.605-2.43-1.215-3.559-1.91a8.608 8.608 0 0 1-3.473-11.715 8.73 8.73 0 0 1 11.805-3.469c4.86 2.688 9.89 5.207 14.926 7.461a8.513 8.513 0 0 1 4.945 6.336zM245.027 149.125a8.619 8.619 0 0 1-.953 4.773c-2.515 4.86-4.86 9.891-6.941 14.926a8.52 8.52 0 0 1-7.985 5.38 8.81 8.81 0 0 1-3.296-.606c-4.426-1.805-6.563-6.848-4.774-11.282 1.473-3.734 3.125-7.379 4.945-11.023 3.473-.606 6.942-1.129 10.415-1.473 2.863-.347 5.726-.523 8.59-.695zM320.96 370.848a154.397 154.397 0 0 1-26.554-14.493 8.679 8.679 0 0 0-8.988-1.117 8.676 8.676 0 0 0-.73 15.434 172.981 172.981 0 0 0 29.417 16.14 9.397 9.397 0 0 0 3.383.696 8.679 8.679 0 0 0 3.473-16.66zm-49.726-33.934a154.758 154.758 0 0 1-19.175-23.43 8.697 8.697 0 0 0-7.813-3.808 8.692 8.692 0 0 0-6.594 13.527 177.752 177.752 0 0 0 21.262 25.95 8.461 8.461 0 0 0 6.16 2.6 8.723 8.723 0 0 0 6.16-14.84zm-33.41-49.984a158.753 158.753 0 0 1-8.762-28.899c-.5-3.14-2.675-5.761-5.675-6.824s-6.34-.398-8.707 1.734a8.683 8.683 0 0 0-2.63 8.477 171.267 171.267 0 0 0 9.723 32.11 8.728 8.728 0 0 0 8.07 5.378 8.72 8.72 0 0 0 7.141-3.886 8.723 8.723 0 0 0 .84-8.09zm-16.05-99.274a8.671 8.671 0 0 0-10.067 6.942 175.671 175.671 0 0 0-3.039 32.457v1.039a8.325 8.325 0 0 0 8.68 8.156h.086c4.882-.234 8.691-4.309 8.59-9.195a155.946 155.946 0 0 1 2.69-29.246 8.677 8.677 0 0 0-1.362-6.52 8.65 8.65 0 0 0-5.579-3.633zM370.598 384.297c-1.649 2.344-3.47 4.601-5.293 6.77h-.086c-2.258 2.601-4.512 5.292-7.117 7.808-3.993-.52-7.895-1.215-11.801-1.996a8.676 8.676 0 0 1-5.242-14.586 8.68 8.68 0 0 1 8.8-2.336 197.439 197.439 0 0 0 16.227 2.52 8.086 8.086 0 0 1 4.512 1.82zm0 0" fill="#e6e7e8" opacity="1" data-original="#e6e7e8"></path></g><path fill="#7f6e5d" d="m304.559 27.895-.258 34.277H200.078l.086-9.113.262-26.032a25.858 25.858 0 0 1 26.207-25.773l52.066.344c14.39.148 25.953 11.906 25.86 26.297zM107.484 58.18h-.09L3.782 67.898h-.086l-.78-8.675-2.43-25.95C-.826 18.973 9.698 6.313 24 4.984L75.809.125a25.949 25.949 0 0 1 28.375 23.43zm0 0" opacity="1" data-original="#7f6e5d"></path><path fill="#cbb292" d="M147.75 485.742a17.353 17.353 0 0 1-17.27 19.004H60.797c-8.945-.004-16.422-6.8-17.27-15.707L3.695 67.9h.086l103.614-9.72h.09l15.706 166.532v.086c-29.726 53.308-23.515 119.426 15.618 166.27zM500.422 67.898 460.59 489.04c-.852 8.906-8.328 15.703-17.27 15.707h-69.683a17.36 17.36 0 0 1-12.895-5.648 17.342 17.342 0 0 1-4.46-13.356l9.023-94.676c39.132-46.843 45.343-112.96 15.62-166.27v-.085L396.634 58.18l103.703 9.718zm0 0" opacity="1" data-original="#cbb292"></path><path fill="#7f6e5d" d="m503.633 33.273-2.43 25.95-.781 8.675h-.086L396.633 58.18l3.297-34.625a25.953 25.953 0 0 1 9.32-17.614A25.94 25.94 0 0 1 428.309.125l51.804 4.86c14.301 1.327 24.824 13.988 23.52 28.288zm0 0" opacity="1" data-original="#7f6e5d"></path></g></svg>