<svg xmlns="http://www.w3.org/2000/svg" version="1.1" xmlns:xlink="http://www.w3.org/1999/xlink" width="512" height="512" x="0" y="0" viewBox="0 0 64 64" style="enable-background:new 0 0 512 512" xml:space="preserve"><g><g fill="#dcedff"><path d="m1.292 2.708 1.414-1.414L17.703 16.29l-1.414 1.414zM46.287 16.297 61.284 1.3l1.414 1.414L47.701 17.71z" fill="#dcedff" opacity="1" data-original="#dcedff"></path><path d="m14.857 1.485-1.715 1.029L22 17.277V48h2V16.723zM26.979 1.804l-1.96.391L28 17.099V48h2V17zM37.02 1.803l-3 15.001L34 48h2V17.099l2.981-14.904zM49.143 1.485 40 16.723V48h2V17.277l8.858-14.763z" fill="#dcedff" opacity="1" data-original="#dcedff"></path><path d="M61.485 13.142 46.723 22H17.277L2.514 13.142l-1.029 1.715L16.723 24h30.554l15.237-9.143zM61.804 25.019 46.901 28H17.099L2.196 25.019l-.392 1.962 15 2.999 30.295.02 15.097-3.019zM47.196 34.02 17 34 1.805 37.02l.391 1.961L17.099 36h29.802l14.903 2.981.392-1.962zM47.277 40H16.723L1.485 49.143l1.029 1.715L17.277 42h29.446l14.762 8.858 1.029-1.715z" fill="#dcedff" opacity="1" data-original="#dcedff"></path></g><path fill="#3d4753" d="M62 1H2a1 1 0 0 0-1 1v60h2V3h58v59h2V2a1 1 0 0 0-1-1z" opacity="1" data-original="#3d4753"></path><path fill="#dcedff" d="M58 58h-2V8H8v50H6V7a1 1 0 0 1 1-1h50a1 1 0 0 1 1 1z" opacity="1" data-original="#dcedff"></path><path fill="#dcedff" d="M53 53h-2V13H13v40h-2V12a1 1 0 0 1 1-1h40a1 1 0 0 1 1 1z" opacity="1" data-original="#dcedff"></path><path fill="#3d4753" d="M47 48a1 1 0 0 1-1-1V18H18v29a1 1 0 0 1-2 0V17a1 1 0 0 1 1-1h30a1 1 0 0 1 1 1v30a1 1 0 0 1-1 1z" opacity="1" data-original="#3d4753"></path><path fill="#69db56" d="M47 46H17a1 1 0 0 0-.707.293l-15 15A1 1 0 0 0 2 63h60a1 1 0 0 0 .707-1.707l-15-15A1 1 0 0 0 47 46z" opacity="1" data-original="#69db56"></path><path fill="#fff575" d="M24 52.375V30.17A3.114 3.114 0 0 0 21.161 27 3 3 0 0 0 18 30v22.375A9.377 9.377 0 0 0 19.875 58h2.25A9.377 9.377 0 0 0 24 52.375z" opacity="1" data-original="#fff575"></path><path fill="#ffd83f" d="M23.161 30A3 3 0 0 0 20 33v22.375A9.349 9.349 0 0 0 20.383 58h1.742A9.377 9.377 0 0 0 24 52.375V30.2a2.789 2.789 0 0 0-.839-.2z" opacity="1" data-original="#ffd83f"></path><path fill="#fff575" d="M35 52.375V30.17A3.114 3.114 0 0 0 32.161 27 3 3 0 0 0 29 30v22.375A9.377 9.377 0 0 0 30.875 58h2.25A9.377 9.377 0 0 0 35 52.375z" opacity="1" data-original="#fff575"></path><path fill="#ffd83f" d="M34.161 30A3 3 0 0 0 31 33v22.375A9.349 9.349 0 0 0 31.383 58h1.742A9.377 9.377 0 0 0 35 52.375V30.2a2.789 2.789 0 0 0-.839-.2z" opacity="1" data-original="#ffd83f"></path><path fill="#fff575" d="M46 52.375V30.17A3.114 3.114 0 0 0 43.161 27 3 3 0 0 0 40 30v22.375A9.377 9.377 0 0 0 41.875 58h2.25A9.377 9.377 0 0 0 46 52.375z" opacity="1" data-original="#fff575"></path><path fill="#ffd83f" d="M45.161 30A3 3 0 0 0 42 33v22.375A9.349 9.349 0 0 0 42.383 58h1.742A9.377 9.377 0 0 0 46 52.375V30.2a2.789 2.789 0 0 0-.839-.2z" opacity="1" data-original="#ffd83f"></path></g></svg>