<svg xmlns="http://www.w3.org/2000/svg" version="1.1" xmlns:xlink="http://www.w3.org/1999/xlink" width="512" height="512" x="0" y="0" viewBox="0 0 512 512" style="enable-background:new 0 0 512 512" xml:space="preserve" class=""><g><circle cx="256" cy="256" r="232.026" fill="#a3defe" transform="rotate(-45 255.972 256.066)" opacity="1" data-original="#a3defe"></circle><path fill="#7acefa" d="M176.479 37.962C87.501 70.422 23.974 155.791 23.974 256c0 128.145 103.882 232.026 232.026 232.026 58.984 0 112.817-22.022 153.755-58.277-273.688-30.247-288.051-290.256-233.276-391.787z" opacity="1" data-original="#7acefa"></path><path fill="#7c899a" d="M446.496 388.475H341.913c23.323-44.658 37.726-92.465 37.726-132.475s-14.403-87.817-37.726-132.475h104.583a232.837 232.837 0 0 0-11.36-15H333.673c-18.347-31.805-41.076-61.278-66.087-84.263A235.572 235.572 0 0 0 256 23.973c-3.886 0-7.748.1-11.587.289-25.011 22.984-47.739 52.459-66.086 84.263H76.864a232.837 232.837 0 0 0-11.36 15h104.583C146.765 168.183 132.362 215.99 132.362 256s14.403 87.817 37.725 132.475H65.504a232.837 232.837 0 0 0 11.36 15h101.463c18.347 31.805 41.076 61.279 66.086 84.263 3.839.189 7.701.289 11.587.289s7.748-.1 11.586-.289c25.011-22.985 47.74-52.458 66.087-84.263h101.463a233.482 233.482 0 0 0 11.36-15zM256 33.97c22.006 19.906 42.755 45.627 60.289 74.556H195.711C213.245 79.597 233.993 53.875 256 33.97zm0 444.06c-22.007-19.906-42.755-45.627-60.289-74.556H316.29c-17.535 28.929-38.284 54.651-60.29 74.556zm76.042-103.161a393.77 393.77 0 0 1-7.11 13.605H187.068a393.77 393.77 0 0 1-7.11-13.605c-21.02-42.249-32.597-84.465-32.597-118.869s11.576-76.62 32.597-118.869a394.733 394.733 0 0 1 7.11-13.606h137.864a392.905 392.905 0 0 1 7.11 13.606c21.021 42.249 32.597 84.465 32.597 118.869s-11.576 76.62-32.597 118.869z" opacity="1" data-original="#7c899a"></path><path fill="#f7ef87" d="M482.736 192.729H29.264C13.102 192.729 0 205.831 0 221.993v68.013c0 16.162 13.102 29.264 29.264 29.264h453.472c16.162 0 29.264-13.102 29.264-29.264v-68.013c0-16.162-13.102-29.264-29.264-29.264z" opacity="1" data-original="#f7ef87"></path><path fill="#efd176" d="M29.264 192.729C13.102 192.729 0 205.831 0 221.993v68.013c0 16.162 13.102 29.264 29.264 29.264h246.413c-31.075-20.598-44.193-77.2-31.248-126.541z" opacity="1" data-original="#efd176" class=""></path><g fill="#4e5660"><path d="M277.309 292.772a7.5 7.5 0 0 1-7.048-4.935L256 248.656l-14.261 39.182a7.5 7.5 0 0 1-14.096 0l-21.309-58.545a7.5 7.5 0 0 1 4.483-9.613 7.502 7.502 0 0 1 9.613 4.482l14.261 39.182 14.261-39.182a7.5 7.5 0 0 1 14.096 0l14.261 39.182 14.261-39.182a7.5 7.5 0 1 1 14.095 5.131l-21.309 58.545a7.498 7.498 0 0 1-7.047 4.934zM162.701 292.772a7.5 7.5 0 0 1-7.048-4.935l-14.261-39.182-14.261 39.182a7.5 7.5 0 0 1-14.096 0l-21.308-58.545a7.5 7.5 0 0 1 4.483-9.613 7.503 7.503 0 0 1 9.613 4.482l14.261 39.182 14.261-39.182a7.5 7.5 0 0 1 14.096 0l14.261 39.182 14.261-39.182a7.5 7.5 0 0 1 14.096 5.131l-21.309 58.545a7.502 7.502 0 0 1-7.049 4.935zM391.916 292.772a7.5 7.5 0 0 1-7.048-4.935l-14.261-39.182-14.261 39.182a7.5 7.5 0 0 1-14.096 0l-21.309-58.545a7.5 7.5 0 0 1 14.095-5.131l14.261 39.182 14.261-39.182a7.5 7.5 0 0 1 14.096 0l14.261 39.182 14.261-39.182a7.5 7.5 0 0 1 9.613-4.482 7.5 7.5 0 0 1 4.482 9.613l-21.309 58.545a7.494 7.494 0 0 1-7.046 4.935z" fill="#4e5660" opacity="1" data-original="#4e5660"></path></g></g></svg>